G04 #@! TF.GenerationSoftware,KiCad,Pcbnew,(5.0.0)*
G04 #@! TF.CreationDate,2020-11-05T20:38:02+01:00*
G04 #@! TF.ProjectId,WiFiRemote,5769466952656D6F74652E6B69636164,rev?*
G04 #@! TF.SameCoordinates,Original*
G04 #@! TF.FileFunction,Soldermask,Top*
G04 #@! TF.FilePolarity,Negative*
%FSLAX46Y46*%
G04 Gerber Fmt 4.6, Leading zero omitted, Abs format (unit mm)*
G04 Created by KiCad (PCBNEW (5.0.0)) date 11/05/20 20:38:02*
%MOMM*%
%LPD*%
G01*
G04 APERTURE LIST*
%ADD10C,0.200000*%
%ADD11R,2.500000X1.100000*%
%ADD12R,1.100000X2.500000*%
%ADD13R,1.249680X1.000760*%
%ADD14R,1.000760X1.249680*%
%ADD15R,2.000000X3.800000*%
%ADD16R,2.000000X1.500000*%
%ADD17R,1.800000X1.800000*%
%ADD18C,1.800000*%
%ADD19R,1.998980X2.499360*%
%ADD20C,0.909320*%
%ADD21R,0.500380X2.301240*%
%ADD22R,1.700000X1.700000*%
%ADD23O,1.700000X1.700000*%
%ADD24R,0.914400X0.914400*%
G04 APERTURE END LIST*
D10*
X65000000Y-30000000D02*
X25000000Y-30000000D01*
X65000000Y-90000000D02*
X65000000Y-30000000D01*
X25000000Y-90000000D02*
X65000000Y-90000000D01*
X25000000Y-30000000D02*
X25000000Y-90000000D01*
D11*
G04 #@! TO.C,U2*
X37300000Y-53000000D03*
X37300000Y-55000000D03*
X37300000Y-57000000D03*
X37300000Y-59000000D03*
X37300000Y-61000000D03*
X37300000Y-63000000D03*
X37300000Y-65000000D03*
X37300000Y-67000000D03*
X52700000Y-67000000D03*
X52700000Y-65000000D03*
X52700000Y-63000000D03*
X52700000Y-61000000D03*
X52700000Y-59000000D03*
X52700000Y-57000000D03*
X52700000Y-55000000D03*
X52700000Y-53000000D03*
D12*
X39990000Y-68700000D03*
X41990000Y-68700000D03*
X43990000Y-68700000D03*
X45990000Y-68700000D03*
X47990000Y-68700000D03*
X49990000Y-68700000D03*
G04 #@! TD*
D13*
G04 #@! TO.C,C1*
X51000000Y-76000760D03*
X51000000Y-73999240D03*
G04 #@! TD*
G04 #@! TO.C,C2*
X39000000Y-73999240D03*
X39000000Y-76000760D03*
G04 #@! TD*
G04 #@! TO.C,C3*
X34750000Y-69000760D03*
X34750000Y-66999240D03*
G04 #@! TD*
G04 #@! TO.C,R1*
X38500000Y-42500760D03*
X38500000Y-40499240D03*
G04 #@! TD*
G04 #@! TO.C,R2*
X34750000Y-50999240D03*
X34750000Y-53000760D03*
G04 #@! TD*
G04 #@! TO.C,R3*
X34750000Y-56999240D03*
X34750000Y-59000760D03*
G04 #@! TD*
D14*
G04 #@! TO.C,R4*
X57000760Y-46600000D03*
X54999240Y-46600000D03*
G04 #@! TD*
D13*
G04 #@! TO.C,R5*
X55250000Y-64999240D03*
X55250000Y-67000760D03*
G04 #@! TD*
D14*
G04 #@! TO.C,R6*
X54999240Y-45000000D03*
X57000760Y-45000000D03*
G04 #@! TD*
D15*
G04 #@! TO.C,U1*
X41850000Y-75000000D03*
D16*
X48150000Y-75000000D03*
X48150000Y-72700000D03*
X48150000Y-77300000D03*
G04 #@! TD*
D17*
G04 #@! TO.C,D1*
X46558200Y-36804600D03*
D18*
X44018200Y-36804600D03*
G04 #@! TD*
D19*
G04 #@! TO.C,J2*
X40549920Y-87749560D03*
X40549920Y-82250460D03*
X49450080Y-82250460D03*
X49450080Y-87749560D03*
D20*
X42800360Y-84749820D03*
X47199640Y-84749820D03*
D21*
X46600200Y-82148860D03*
X45800100Y-82148860D03*
X45000000Y-82148860D03*
X44199900Y-82148860D03*
X43399800Y-82148860D03*
G04 #@! TD*
D22*
G04 #@! TO.C,JP2*
X32000000Y-53000000D03*
D23*
X32000000Y-55540000D03*
G04 #@! TD*
D22*
G04 #@! TO.C,JP1*
X58000000Y-64500000D03*
D23*
X58000000Y-61960000D03*
G04 #@! TD*
D22*
G04 #@! TO.C,J1*
X58000000Y-53000000D03*
D23*
X58000000Y-55540000D03*
X58000000Y-58080000D03*
G04 #@! TD*
D24*
G04 #@! TO.C,Q1*
X51500000Y-40499240D03*
X52389000Y-42516000D03*
X50611000Y-42516000D03*
G04 #@! TD*
M02*
