G04 #@! TF.GenerationSoftware,KiCad,Pcbnew,(5.0.0)*
G04 #@! TF.CreationDate,2020-11-05T20:38:02+01:00*
G04 #@! TF.ProjectId,WiFiRemote,5769466952656D6F74652E6B69636164,rev?*
G04 #@! TF.SameCoordinates,Original*
G04 #@! TF.FileFunction,Legend,Bot*
G04 #@! TF.FilePolarity,Positive*
%FSLAX46Y46*%
G04 Gerber Fmt 4.6, Leading zero omitted, Abs format (unit mm)*
G04 Created by KiCad (PCBNEW (5.0.0)) date 11/05/20 20:38:02*
%MOMM*%
%LPD*%
G01*
G04 APERTURE LIST*
%ADD10C,0.200000*%
%ADD11C,0.120000*%
%ADD12C,0.150000*%
G04 APERTURE END LIST*
D10*
X65000000Y-30000000D02*
X25000000Y-30000000D01*
X65000000Y-90000000D02*
X65000000Y-30000000D01*
X25000000Y-90000000D02*
X65000000Y-90000000D01*
X25000000Y-30000000D02*
X25000000Y-90000000D01*
D11*
G04 #@! TO.C,D1*
X42298200Y-36805062D02*
G75*
G02X47848200Y-35259770I2990000J462D01*
G01*
X42298200Y-36804138D02*
G75*
G03X47848200Y-38349430I2990000J-462D01*
G01*
X47788200Y-36804600D02*
G75*
G03X47788200Y-36804600I-2500000J0D01*
G01*
X47848200Y-35259600D02*
X47848200Y-38349600D01*
G04 #@! TO.C,JP2*
X33330000Y-51670000D02*
X33330000Y-56870000D01*
X33270000Y-51670000D02*
X33330000Y-51670000D01*
X30670000Y-56870000D02*
X33330000Y-56870000D01*
X33270000Y-51670000D02*
X33270000Y-54270000D01*
X33270000Y-54270000D02*
X30670000Y-54270000D01*
X30670000Y-54270000D02*
X30670000Y-56870000D01*
X32000000Y-51670000D02*
X30670000Y-51670000D01*
X30670000Y-51670000D02*
X30670000Y-53000000D01*
G04 #@! TO.C,JP1*
X56670000Y-65830000D02*
X56670000Y-60630000D01*
X56730000Y-65830000D02*
X56670000Y-65830000D01*
X59330000Y-60630000D02*
X56670000Y-60630000D01*
X56730000Y-65830000D02*
X56730000Y-63230000D01*
X56730000Y-63230000D02*
X59330000Y-63230000D01*
X59330000Y-63230000D02*
X59330000Y-60630000D01*
X58000000Y-65830000D02*
X59330000Y-65830000D01*
X59330000Y-65830000D02*
X59330000Y-64500000D01*
G04 #@! TO.C,J1*
X59330000Y-59410000D02*
X56670000Y-59410000D01*
X59330000Y-54270000D02*
X59330000Y-59410000D01*
X56670000Y-54270000D02*
X56670000Y-59410000D01*
X59330000Y-54270000D02*
X56670000Y-54270000D01*
X59330000Y-53000000D02*
X59330000Y-51670000D01*
X59330000Y-51670000D02*
X58000000Y-51670000D01*
G04 #@! TD*
G04 #@! TO.C,D1*
D12*
X46026295Y-33296980D02*
X46026295Y-32296980D01*
X45788200Y-32296980D01*
X45645342Y-32344600D01*
X45550104Y-32439838D01*
X45502485Y-32535076D01*
X45454866Y-32725552D01*
X45454866Y-32868409D01*
X45502485Y-33058885D01*
X45550104Y-33154123D01*
X45645342Y-33249361D01*
X45788200Y-33296980D01*
X46026295Y-33296980D01*
X44502485Y-33296980D02*
X45073914Y-33296980D01*
X44788200Y-33296980D02*
X44788200Y-32296980D01*
X44883438Y-32439838D01*
X44978676Y-32535076D01*
X45073914Y-32582695D01*
G04 #@! TO.C,JP2*
X29122380Y-53436666D02*
X29836666Y-53436666D01*
X29979523Y-53389047D01*
X30074761Y-53293809D01*
X30122380Y-53150952D01*
X30122380Y-53055714D01*
X30122380Y-53912857D02*
X29122380Y-53912857D01*
X29122380Y-54293809D01*
X29170000Y-54389047D01*
X29217619Y-54436666D01*
X29312857Y-54484285D01*
X29455714Y-54484285D01*
X29550952Y-54436666D01*
X29598571Y-54389047D01*
X29646190Y-54293809D01*
X29646190Y-53912857D01*
X29217619Y-54865238D02*
X29170000Y-54912857D01*
X29122380Y-55008095D01*
X29122380Y-55246190D01*
X29170000Y-55341428D01*
X29217619Y-55389047D01*
X29312857Y-55436666D01*
X29408095Y-55436666D01*
X29550952Y-55389047D01*
X30122380Y-54817619D01*
X30122380Y-55436666D01*
G04 #@! TO.C,JP1*
X59782380Y-62396666D02*
X60496666Y-62396666D01*
X60639523Y-62349047D01*
X60734761Y-62253809D01*
X60782380Y-62110952D01*
X60782380Y-62015714D01*
X60782380Y-62872857D02*
X59782380Y-62872857D01*
X59782380Y-63253809D01*
X59830000Y-63349047D01*
X59877619Y-63396666D01*
X59972857Y-63444285D01*
X60115714Y-63444285D01*
X60210952Y-63396666D01*
X60258571Y-63349047D01*
X60306190Y-63253809D01*
X60306190Y-62872857D01*
X60782380Y-64396666D02*
X60782380Y-63825238D01*
X60782380Y-64110952D02*
X59782380Y-64110952D01*
X59925238Y-64015714D01*
X60020476Y-63920476D01*
X60068095Y-63825238D01*
G04 #@! TO.C,J1*
X58333333Y-50122380D02*
X58333333Y-50836666D01*
X58380952Y-50979523D01*
X58476190Y-51074761D01*
X58619047Y-51122380D01*
X58714285Y-51122380D01*
X57333333Y-51122380D02*
X57904761Y-51122380D01*
X57619047Y-51122380D02*
X57619047Y-50122380D01*
X57714285Y-50265238D01*
X57809523Y-50360476D01*
X57904761Y-50408095D01*
G04 #@! TD*
M02*
