G04 #@! TF.GenerationSoftware,KiCad,Pcbnew,(5.0.0)*
G04 #@! TF.CreationDate,2020-11-05T20:38:02+01:00*
G04 #@! TF.ProjectId,WiFiRemote,5769466952656D6F74652E6B69636164,rev?*
G04 #@! TF.SameCoordinates,Original*
G04 #@! TF.FileFunction,Copper,L1,Top,Signal*
G04 #@! TF.FilePolarity,Positive*
%FSLAX46Y46*%
G04 Gerber Fmt 4.6, Leading zero omitted, Abs format (unit mm)*
G04 Created by KiCad (PCBNEW (5.0.0)) date 11/05/20 20:38:02*
%MOMM*%
%LPD*%
G01*
G04 APERTURE LIST*
G04 #@! TA.AperFunction,NonConductor*
%ADD10C,0.200000*%
G04 #@! TD*
G04 #@! TA.AperFunction,SMDPad,CuDef*
%ADD11R,2.500000X1.100000*%
G04 #@! TD*
G04 #@! TA.AperFunction,SMDPad,CuDef*
%ADD12R,1.100000X2.500000*%
G04 #@! TD*
G04 #@! TA.AperFunction,SMDPad,CuDef*
%ADD13R,1.249680X1.000760*%
G04 #@! TD*
G04 #@! TA.AperFunction,SMDPad,CuDef*
%ADD14R,1.000760X1.249680*%
G04 #@! TD*
G04 #@! TA.AperFunction,SMDPad,CuDef*
%ADD15R,2.000000X3.800000*%
G04 #@! TD*
G04 #@! TA.AperFunction,SMDPad,CuDef*
%ADD16R,2.000000X1.500000*%
G04 #@! TD*
G04 #@! TA.AperFunction,ComponentPad*
%ADD17R,1.800000X1.800000*%
G04 #@! TD*
G04 #@! TA.AperFunction,ComponentPad*
%ADD18C,1.800000*%
G04 #@! TD*
G04 #@! TA.AperFunction,SMDPad,CuDef*
%ADD19R,1.998980X2.499360*%
G04 #@! TD*
G04 #@! TA.AperFunction,ComponentPad*
%ADD20C,0.909320*%
G04 #@! TD*
G04 #@! TA.AperFunction,SMDPad,CuDef*
%ADD21R,0.500380X2.301240*%
G04 #@! TD*
G04 #@! TA.AperFunction,ComponentPad*
%ADD22R,1.700000X1.700000*%
G04 #@! TD*
G04 #@! TA.AperFunction,ComponentPad*
%ADD23O,1.700000X1.700000*%
G04 #@! TD*
G04 #@! TA.AperFunction,SMDPad,CuDef*
%ADD24R,0.914400X0.914400*%
G04 #@! TD*
G04 #@! TA.AperFunction,Conductor*
%ADD25C,0.250000*%
G04 #@! TD*
G04 #@! TA.AperFunction,Conductor*
%ADD26C,0.254000*%
G04 #@! TD*
G04 APERTURE END LIST*
D10*
X65000000Y-30000000D02*
X25000000Y-30000000D01*
X65000000Y-90000000D02*
X65000000Y-30000000D01*
X25000000Y-90000000D02*
X65000000Y-90000000D01*
X25000000Y-30000000D02*
X25000000Y-90000000D01*
D11*
G04 #@! TO.P,U2,1*
G04 #@! TO.N,Net-(JP2-Pad1)*
X37300000Y-53000000D03*
G04 #@! TO.P,U2,2*
G04 #@! TO.N,Net-(U2-Pad2)*
X37300000Y-55000000D03*
G04 #@! TO.P,U2,3*
G04 #@! TO.N,Net-(R3-Pad2)*
X37300000Y-57000000D03*
G04 #@! TO.P,U2,4*
G04 #@! TO.N,Net-(U2-Pad4)*
X37300000Y-59000000D03*
G04 #@! TO.P,U2,5*
G04 #@! TO.N,Net-(U2-Pad5)*
X37300000Y-61000000D03*
G04 #@! TO.P,U2,6*
G04 #@! TO.N,Net-(U2-Pad6)*
X37300000Y-63000000D03*
G04 #@! TO.P,U2,7*
G04 #@! TO.N,Net-(U2-Pad7)*
X37300000Y-65000000D03*
G04 #@! TO.P,U2,8*
G04 #@! TO.N,+3V3*
X37300000Y-67000000D03*
G04 #@! TO.P,U2,9*
G04 #@! TO.N,GNDD*
X52700000Y-67000000D03*
G04 #@! TO.P,U2,10*
G04 #@! TO.N,Net-(R5-Pad1)*
X52700000Y-65000000D03*
G04 #@! TO.P,U2,11*
G04 #@! TO.N,Net-(U2-Pad11)*
X52700000Y-63000000D03*
G04 #@! TO.P,U2,12*
G04 #@! TO.N,Net-(JP1-Pad2)*
X52700000Y-61000000D03*
G04 #@! TO.P,U2,13*
G04 #@! TO.N,Net-(U2-Pad13)*
X52700000Y-59000000D03*
G04 #@! TO.P,U2,14*
G04 #@! TO.N,Net-(R4-Pad2)*
X52700000Y-57000000D03*
G04 #@! TO.P,U2,15*
G04 #@! TO.N,Net-(J1-Pad2)*
X52700000Y-55000000D03*
G04 #@! TO.P,U2,16*
G04 #@! TO.N,Net-(J1-Pad1)*
X52700000Y-53000000D03*
D12*
G04 #@! TO.P,U2,17*
G04 #@! TO.N,Net-(U2-Pad17)*
X39990000Y-68700000D03*
G04 #@! TO.P,U2,18*
G04 #@! TO.N,Net-(U2-Pad18)*
X41990000Y-68700000D03*
G04 #@! TO.P,U2,19*
G04 #@! TO.N,Net-(U2-Pad19)*
X43990000Y-68700000D03*
G04 #@! TO.P,U2,20*
G04 #@! TO.N,Net-(U2-Pad20)*
X45990000Y-68700000D03*
G04 #@! TO.P,U2,21*
G04 #@! TO.N,Net-(U2-Pad21)*
X47990000Y-68700000D03*
G04 #@! TO.P,U2,22*
G04 #@! TO.N,Net-(U2-Pad22)*
X49990000Y-68700000D03*
G04 #@! TD*
D13*
G04 #@! TO.P,C1,2*
G04 #@! TO.N,GNDD*
X51000000Y-76000760D03*
G04 #@! TO.P,C1,1*
G04 #@! TO.N,+5V*
X51000000Y-73999240D03*
G04 #@! TD*
G04 #@! TO.P,C2,1*
G04 #@! TO.N,+3V3*
X39000000Y-73999240D03*
G04 #@! TO.P,C2,2*
G04 #@! TO.N,GNDD*
X39000000Y-76000760D03*
G04 #@! TD*
G04 #@! TO.P,C3,2*
G04 #@! TO.N,GNDD*
X34750000Y-69000760D03*
G04 #@! TO.P,C3,1*
G04 #@! TO.N,+3V3*
X34750000Y-66999240D03*
G04 #@! TD*
G04 #@! TO.P,R1,1*
G04 #@! TO.N,+3V3*
X38500000Y-42500760D03*
G04 #@! TO.P,R1,2*
G04 #@! TO.N,Net-(D1-Pad2)*
X38500000Y-40499240D03*
G04 #@! TD*
G04 #@! TO.P,R2,1*
G04 #@! TO.N,+3V3*
X34750000Y-50999240D03*
G04 #@! TO.P,R2,2*
G04 #@! TO.N,Net-(JP2-Pad1)*
X34750000Y-53000760D03*
G04 #@! TD*
G04 #@! TO.P,R3,2*
G04 #@! TO.N,Net-(R3-Pad2)*
X34750000Y-56999240D03*
G04 #@! TO.P,R3,1*
G04 #@! TO.N,+3V3*
X34750000Y-59000760D03*
G04 #@! TD*
D14*
G04 #@! TO.P,R4,2*
G04 #@! TO.N,Net-(R4-Pad2)*
X57000760Y-46600000D03*
G04 #@! TO.P,R4,1*
G04 #@! TO.N,Net-(Q1-Pad1)*
X54999240Y-46600000D03*
G04 #@! TD*
D13*
G04 #@! TO.P,R5,1*
G04 #@! TO.N,Net-(R5-Pad1)*
X55250000Y-64999240D03*
G04 #@! TO.P,R5,2*
G04 #@! TO.N,GNDD*
X55250000Y-67000760D03*
G04 #@! TD*
D14*
G04 #@! TO.P,R6,1*
G04 #@! TO.N,Net-(Q1-Pad1)*
X54999240Y-45000000D03*
G04 #@! TO.P,R6,2*
G04 #@! TO.N,GNDD*
X57000760Y-45000000D03*
G04 #@! TD*
D15*
G04 #@! TO.P,U1,2*
G04 #@! TO.N,+3V3*
X41850000Y-75000000D03*
D16*
X48150000Y-75000000D03*
G04 #@! TO.P,U1,3*
G04 #@! TO.N,+5V*
X48150000Y-72700000D03*
G04 #@! TO.P,U1,1*
G04 #@! TO.N,GNDD*
X48150000Y-77300000D03*
G04 #@! TD*
D17*
G04 #@! TO.P,D1,1*
G04 #@! TO.N,Net-(D1-Pad1)*
X46558200Y-36804600D03*
D18*
G04 #@! TO.P,D1,2*
G04 #@! TO.N,Net-(D1-Pad2)*
X44018200Y-36804600D03*
G04 #@! TD*
D19*
G04 #@! TO.P,J2,*
G04 #@! TO.N,*
X40549920Y-87749560D03*
X40549920Y-82250460D03*
G04 #@! TO.P,J2,6*
G04 #@! TO.N,GNDD*
X49450080Y-82250460D03*
G04 #@! TO.P,J2,*
G04 #@! TO.N,*
X49450080Y-87749560D03*
D20*
X42800360Y-84749820D03*
X47199640Y-84749820D03*
D21*
G04 #@! TO.P,J2,5*
G04 #@! TO.N,GNDD*
X46600200Y-82148860D03*
G04 #@! TO.P,J2,4*
G04 #@! TO.N,Net-(J2-Pad4)*
X45800100Y-82148860D03*
G04 #@! TO.P,J2,3*
G04 #@! TO.N,Net-(J2-Pad3)*
X45000000Y-82148860D03*
G04 #@! TO.P,J2,2*
G04 #@! TO.N,Net-(J2-Pad2)*
X44199900Y-82148860D03*
G04 #@! TO.P,J2,1*
G04 #@! TO.N,+5V*
X43399800Y-82148860D03*
G04 #@! TD*
D22*
G04 #@! TO.P,JP2,1*
G04 #@! TO.N,Net-(JP2-Pad1)*
X32000000Y-53000000D03*
D23*
G04 #@! TO.P,JP2,2*
G04 #@! TO.N,GNDD*
X32000000Y-55540000D03*
G04 #@! TD*
D22*
G04 #@! TO.P,JP1,1*
G04 #@! TO.N,GNDD*
X58000000Y-64500000D03*
D23*
G04 #@! TO.P,JP1,2*
G04 #@! TO.N,Net-(JP1-Pad2)*
X58000000Y-61960000D03*
G04 #@! TD*
D22*
G04 #@! TO.P,J1,1*
G04 #@! TO.N,Net-(J1-Pad1)*
X58000000Y-53000000D03*
D23*
G04 #@! TO.P,J1,2*
G04 #@! TO.N,Net-(J1-Pad2)*
X58000000Y-55540000D03*
G04 #@! TO.P,J1,3*
G04 #@! TO.N,GNDD*
X58000000Y-58080000D03*
G04 #@! TD*
D24*
G04 #@! TO.P,Q1,3*
G04 #@! TO.N,Net-(D1-Pad1)*
X51500000Y-40499240D03*
G04 #@! TO.P,Q1,2*
G04 #@! TO.N,GNDD*
X52389000Y-42516000D03*
G04 #@! TO.P,Q1,1*
G04 #@! TO.N,Net-(Q1-Pad1)*
X50611000Y-42516000D03*
G04 #@! TD*
D25*
G04 #@! TO.N,+5V*
X51000000Y-73248860D02*
X51000000Y-73999240D01*
X50451140Y-72700000D02*
X51000000Y-73248860D01*
X48150000Y-72700000D02*
X50451140Y-72700000D01*
X51874840Y-73999240D02*
X52793900Y-74918300D01*
X51000000Y-73999240D02*
X51874840Y-73999240D01*
X52793900Y-74918300D02*
X52793900Y-78193900D01*
X52793900Y-78193900D02*
X51117500Y-79870300D01*
X43399800Y-80748240D02*
X43399800Y-82148860D01*
X44277740Y-79870300D02*
X43399800Y-80748240D01*
X51117500Y-79870300D02*
X44277740Y-79870300D01*
G04 #@! TO.N,+3V3*
X46900000Y-75000000D02*
X41850000Y-75000000D01*
X48150000Y-75000000D02*
X46900000Y-75000000D01*
X40849240Y-73999240D02*
X41850000Y-75000000D01*
X39000000Y-73999240D02*
X40849240Y-73999240D01*
X37325300Y-73199380D02*
X37325300Y-72491600D01*
X38125160Y-73999240D02*
X37325300Y-73199380D01*
X39000000Y-73999240D02*
X38125160Y-73999240D01*
X37325300Y-73088500D02*
X37325300Y-72491600D01*
X37325300Y-72491600D02*
X37325300Y-67640200D01*
X34750000Y-50999240D02*
X34750000Y-43774100D01*
X36023340Y-42500760D02*
X38500000Y-42500760D01*
X34750000Y-43774100D02*
X36023340Y-42500760D01*
X37999240Y-66999240D02*
X34750000Y-66999240D01*
X38000000Y-67000000D02*
X37999240Y-66999240D01*
X37965500Y-67000000D02*
X38000000Y-67000000D01*
X37325300Y-67640200D02*
X37965500Y-67000000D01*
X34750000Y-59751140D02*
X34750000Y-66999240D01*
X34750000Y-59000760D02*
X34750000Y-59751140D01*
G04 #@! TO.N,Net-(J1-Pad1)*
X52000000Y-53000000D02*
X58000000Y-53000000D01*
G04 #@! TO.N,Net-(J1-Pad2)*
X56257919Y-55000000D02*
X52000000Y-55000000D01*
X56797919Y-55540000D02*
X56257919Y-55000000D01*
X58000000Y-55540000D02*
X56797919Y-55540000D01*
G04 #@! TO.N,Net-(JP1-Pad2)*
X57040000Y-61000000D02*
X58000000Y-61960000D01*
X52000000Y-61000000D02*
X57040000Y-61000000D01*
G04 #@! TO.N,GNDD*
X52450000Y-42500000D02*
X55682600Y-42500000D01*
X57000760Y-43818160D02*
X57000760Y-45000000D01*
X55682600Y-42500000D02*
X57000760Y-43818160D01*
X52000760Y-67000760D02*
X55250000Y-67000760D01*
X52000000Y-67000000D02*
X52000760Y-67000760D01*
G04 #@! TO.N,+3V3*
X33175001Y-54975999D02*
X32440702Y-54241700D01*
X33175001Y-58300601D02*
X33175001Y-54975999D01*
X34750000Y-59000760D02*
X33875160Y-59000760D01*
X33875160Y-59000760D02*
X33175001Y-58300601D01*
X32440702Y-54241700D02*
X30899100Y-54241700D01*
X30899100Y-54241700D02*
X30314900Y-53657500D01*
X30314900Y-53657500D02*
X30314900Y-51562000D01*
X30877660Y-50999240D02*
X34750000Y-50999240D01*
X30314900Y-51562000D02*
X30877660Y-50999240D01*
G04 #@! TO.N,Net-(D1-Pad1)*
X46558200Y-36804600D02*
X50050700Y-36804600D01*
X51500000Y-38253900D02*
X51500000Y-40500000D01*
X50050700Y-36804600D02*
X51500000Y-38253900D01*
G04 #@! TO.N,Net-(D1-Pad2)*
X44018200Y-36804600D02*
X40043100Y-36804600D01*
X38500000Y-38347700D02*
X38500000Y-40499240D01*
X40043100Y-36804600D02*
X38500000Y-38347700D01*
G04 #@! TO.N,Net-(R3-Pad2)*
X37987160Y-57012840D02*
X34747200Y-57012840D01*
X38000000Y-57000000D02*
X37987160Y-57012840D01*
X34750000Y-56999240D02*
X34750000Y-55705000D01*
G04 #@! TO.N,Net-(R4-Pad2)*
X59274601Y-56904999D02*
X60210700Y-55968900D01*
X52000000Y-57000000D02*
X52095001Y-56904999D01*
X52095001Y-56904999D02*
X59274601Y-56904999D01*
X60210700Y-55968900D02*
X60210700Y-51727100D01*
X60210700Y-51727100D02*
X59118500Y-50634900D01*
X57000760Y-49583960D02*
X58051700Y-50634900D01*
X57000760Y-46600000D02*
X57000760Y-49583960D01*
X59118500Y-50634900D02*
X58051700Y-50634900D01*
G04 #@! TO.N,Net-(R5-Pad1)*
X52000760Y-64999240D02*
X55250000Y-64999240D01*
X52000000Y-65000000D02*
X52000760Y-64999240D01*
G04 #@! TO.N,Net-(JP2-Pad1)*
X34749240Y-53000000D02*
X34750000Y-53000760D01*
X32000000Y-53000000D02*
X34749240Y-53000000D01*
X37999240Y-53000760D02*
X34750000Y-53000760D01*
X38000000Y-53000000D02*
X37999240Y-53000760D01*
G04 #@! TO.N,Net-(Q1-Pad1)*
X54248860Y-45000000D02*
X53305160Y-44056300D01*
X54999240Y-45000000D02*
X54248860Y-45000000D01*
X53305160Y-44056300D02*
X51346100Y-44056300D01*
X50611000Y-43321200D02*
X50611000Y-42516000D01*
X51346100Y-44056300D02*
X50611000Y-43321200D01*
X54999240Y-45000000D02*
X54999240Y-46600000D01*
G04 #@! TD*
D26*
G04 #@! TO.N,GNDD*
G36*
X64265000Y-89265000D02*
X51035703Y-89265000D01*
X51047727Y-89247005D01*
X51097010Y-88999240D01*
X51097010Y-86499880D01*
X51047727Y-86252115D01*
X50907379Y-86042071D01*
X50697335Y-85901723D01*
X50449570Y-85852440D01*
X48450590Y-85852440D01*
X48202825Y-85901723D01*
X47992781Y-86042071D01*
X47852433Y-86252115D01*
X47803150Y-86499880D01*
X47803150Y-88999240D01*
X47852433Y-89247005D01*
X47864457Y-89265000D01*
X42135543Y-89265000D01*
X42147567Y-89247005D01*
X42196850Y-88999240D01*
X42196850Y-86499880D01*
X42147567Y-86252115D01*
X42007219Y-86042071D01*
X41797175Y-85901723D01*
X41549410Y-85852440D01*
X39550430Y-85852440D01*
X39302665Y-85901723D01*
X39092621Y-86042071D01*
X38952273Y-86252115D01*
X38902990Y-86499880D01*
X38902990Y-88999240D01*
X38952273Y-89247005D01*
X38964297Y-89265000D01*
X25735000Y-89265000D01*
X25735000Y-81000780D01*
X38902990Y-81000780D01*
X38902990Y-83500140D01*
X38952273Y-83747905D01*
X39092621Y-83957949D01*
X39302665Y-84098297D01*
X39550430Y-84147580D01*
X41549410Y-84147580D01*
X41797175Y-84098297D01*
X42007219Y-83957949D01*
X42147567Y-83747905D01*
X42196850Y-83500140D01*
X42196850Y-81000780D01*
X42147567Y-80753015D01*
X42007219Y-80542971D01*
X41797175Y-80402623D01*
X41549410Y-80353340D01*
X39550430Y-80353340D01*
X39302665Y-80402623D01*
X39092621Y-80542971D01*
X38952273Y-80753015D01*
X38902990Y-81000780D01*
X25735000Y-81000780D01*
X25735000Y-77585750D01*
X46515000Y-77585750D01*
X46515000Y-78176310D01*
X46611673Y-78409699D01*
X46790302Y-78588327D01*
X47023691Y-78685000D01*
X47864250Y-78685000D01*
X48023000Y-78526250D01*
X48023000Y-77427000D01*
X48277000Y-77427000D01*
X48277000Y-78526250D01*
X48435750Y-78685000D01*
X49276309Y-78685000D01*
X49509698Y-78588327D01*
X49688327Y-78409699D01*
X49785000Y-78176310D01*
X49785000Y-77585750D01*
X49626250Y-77427000D01*
X48277000Y-77427000D01*
X48023000Y-77427000D01*
X46673750Y-77427000D01*
X46515000Y-77585750D01*
X25735000Y-77585750D01*
X25735000Y-76286510D01*
X37740160Y-76286510D01*
X37740160Y-76627449D01*
X37836833Y-76860838D01*
X38015461Y-77039467D01*
X38248850Y-77136140D01*
X38714250Y-77136140D01*
X38873000Y-76977390D01*
X38873000Y-76127760D01*
X37898910Y-76127760D01*
X37740160Y-76286510D01*
X25735000Y-76286510D01*
X25735000Y-69286510D01*
X33490160Y-69286510D01*
X33490160Y-69627449D01*
X33586833Y-69860838D01*
X33765461Y-70039467D01*
X33998850Y-70136140D01*
X34464250Y-70136140D01*
X34623000Y-69977390D01*
X34623000Y-69127760D01*
X34877000Y-69127760D01*
X34877000Y-69977390D01*
X35035750Y-70136140D01*
X35501150Y-70136140D01*
X35734539Y-70039467D01*
X35913167Y-69860838D01*
X36009840Y-69627449D01*
X36009840Y-69286510D01*
X35851090Y-69127760D01*
X34877000Y-69127760D01*
X34623000Y-69127760D01*
X33648910Y-69127760D01*
X33490160Y-69286510D01*
X25735000Y-69286510D01*
X25735000Y-55896892D01*
X30558514Y-55896892D01*
X30804817Y-56421358D01*
X31233076Y-56811645D01*
X31643110Y-56981476D01*
X31873000Y-56860155D01*
X31873000Y-55667000D01*
X30679181Y-55667000D01*
X30558514Y-55896892D01*
X25735000Y-55896892D01*
X25735000Y-51562000D01*
X29540012Y-51562000D01*
X29554901Y-51636852D01*
X29554900Y-53582653D01*
X29540012Y-53657500D01*
X29554900Y-53732347D01*
X29554900Y-53732351D01*
X29598996Y-53954036D01*
X29766971Y-54205429D01*
X29830430Y-54247831D01*
X30308770Y-54726172D01*
X30351171Y-54789629D01*
X30602563Y-54957604D01*
X30659132Y-54968856D01*
X30558514Y-55183108D01*
X30679181Y-55413000D01*
X31873000Y-55413000D01*
X31873000Y-55393000D01*
X32127000Y-55393000D01*
X32127000Y-55413000D01*
X32147000Y-55413000D01*
X32147000Y-55667000D01*
X32127000Y-55667000D01*
X32127000Y-56860155D01*
X32356890Y-56981476D01*
X32415001Y-56957407D01*
X32415001Y-58225754D01*
X32400113Y-58300601D01*
X32415001Y-58375448D01*
X32415001Y-58375452D01*
X32459097Y-58597137D01*
X32627072Y-58848530D01*
X32690530Y-58890931D01*
X33284832Y-59485235D01*
X33327231Y-59548689D01*
X33390684Y-59591087D01*
X33390686Y-59591089D01*
X33511695Y-59671944D01*
X33527003Y-59748905D01*
X33667351Y-59958949D01*
X33877395Y-60099297D01*
X33990000Y-60121695D01*
X33990001Y-65878305D01*
X33877395Y-65900703D01*
X33667351Y-66041051D01*
X33527003Y-66251095D01*
X33477720Y-66498860D01*
X33477720Y-67499620D01*
X33527003Y-67747385D01*
X33667351Y-67957429D01*
X33728935Y-67998579D01*
X33586833Y-68140682D01*
X33490160Y-68374071D01*
X33490160Y-68715010D01*
X33648910Y-68873760D01*
X34623000Y-68873760D01*
X34623000Y-68853760D01*
X34877000Y-68853760D01*
X34877000Y-68873760D01*
X35851090Y-68873760D01*
X36009840Y-68715010D01*
X36009840Y-68374071D01*
X35926502Y-68172875D01*
X36050000Y-68197440D01*
X36565301Y-68197440D01*
X36565300Y-72416748D01*
X36565300Y-73124533D01*
X36550412Y-73199380D01*
X36565300Y-73274227D01*
X36565300Y-73274231D01*
X36609396Y-73495916D01*
X36777371Y-73747309D01*
X36840830Y-73789711D01*
X37534830Y-74483712D01*
X37577231Y-74547169D01*
X37761695Y-74670424D01*
X37777003Y-74747385D01*
X37917351Y-74957429D01*
X37978935Y-74998579D01*
X37836833Y-75140682D01*
X37740160Y-75374071D01*
X37740160Y-75715010D01*
X37898910Y-75873760D01*
X38873000Y-75873760D01*
X38873000Y-75853760D01*
X39127000Y-75853760D01*
X39127000Y-75873760D01*
X39147000Y-75873760D01*
X39147000Y-76127760D01*
X39127000Y-76127760D01*
X39127000Y-76977390D01*
X39285750Y-77136140D01*
X39751150Y-77136140D01*
X39984539Y-77039467D01*
X40163167Y-76860838D01*
X40202560Y-76765735D01*
X40202560Y-76900000D01*
X40251843Y-77147765D01*
X40392191Y-77357809D01*
X40602235Y-77498157D01*
X40850000Y-77547440D01*
X42850000Y-77547440D01*
X43097765Y-77498157D01*
X43307809Y-77357809D01*
X43448157Y-77147765D01*
X43497440Y-76900000D01*
X43497440Y-75760000D01*
X46504549Y-75760000D01*
X46551843Y-75997765D01*
X46652927Y-76149047D01*
X46611673Y-76190301D01*
X46515000Y-76423690D01*
X46515000Y-77014250D01*
X46673750Y-77173000D01*
X48023000Y-77173000D01*
X48023000Y-77153000D01*
X48277000Y-77153000D01*
X48277000Y-77173000D01*
X49626250Y-77173000D01*
X49785000Y-77014250D01*
X49785000Y-76735702D01*
X49836833Y-76860838D01*
X50015461Y-77039467D01*
X50248850Y-77136140D01*
X50714250Y-77136140D01*
X50873000Y-76977390D01*
X50873000Y-76127760D01*
X50853000Y-76127760D01*
X50853000Y-75873760D01*
X50873000Y-75873760D01*
X50873000Y-75853760D01*
X51127000Y-75853760D01*
X51127000Y-75873760D01*
X51147000Y-75873760D01*
X51147000Y-76127760D01*
X51127000Y-76127760D01*
X51127000Y-76977390D01*
X51285750Y-77136140D01*
X51751150Y-77136140D01*
X51984539Y-77039467D01*
X52033901Y-76990105D01*
X52033901Y-77879097D01*
X50802699Y-79110300D01*
X44352588Y-79110300D01*
X44277740Y-79095412D01*
X44202892Y-79110300D01*
X44202888Y-79110300D01*
X44029345Y-79144820D01*
X43981202Y-79154396D01*
X43794158Y-79279376D01*
X43729811Y-79322371D01*
X43687411Y-79385827D01*
X42915330Y-80157909D01*
X42851871Y-80200311D01*
X42683896Y-80451704D01*
X42655415Y-80594886D01*
X42551453Y-80750475D01*
X42502170Y-80998240D01*
X42502170Y-83299480D01*
X42551453Y-83547245D01*
X42626901Y-83660160D01*
X42583613Y-83660160D01*
X42183117Y-83826051D01*
X41876591Y-84132577D01*
X41710700Y-84533073D01*
X41710700Y-84966567D01*
X41876591Y-85367063D01*
X42183117Y-85673589D01*
X42583613Y-85839480D01*
X43017107Y-85839480D01*
X43417603Y-85673589D01*
X43724129Y-85367063D01*
X43890020Y-84966567D01*
X43890020Y-84533073D01*
X43724129Y-84132577D01*
X43538472Y-83946920D01*
X43649990Y-83946920D01*
X43799850Y-83917111D01*
X43949710Y-83946920D01*
X44450090Y-83946920D01*
X44599950Y-83917111D01*
X44749810Y-83946920D01*
X45250190Y-83946920D01*
X45400050Y-83917111D01*
X45549910Y-83946920D01*
X46050290Y-83946920D01*
X46187732Y-83919581D01*
X46223701Y-83934480D01*
X46316355Y-83934480D01*
X46464240Y-83786595D01*
X46473198Y-83780609D01*
X46473198Y-83934480D01*
X46473968Y-83934480D01*
X46275871Y-84132577D01*
X46109980Y-84533073D01*
X46109980Y-84966567D01*
X46275871Y-85367063D01*
X46582397Y-85673589D01*
X46982893Y-85839480D01*
X47416387Y-85839480D01*
X47816883Y-85673589D01*
X48123409Y-85367063D01*
X48289300Y-84966567D01*
X48289300Y-84533073D01*
X48123409Y-84132577D01*
X47816883Y-83826051D01*
X47416387Y-83660160D01*
X47387736Y-83660160D01*
X47388717Y-83659179D01*
X47485390Y-83425790D01*
X47485390Y-82536210D01*
X47815590Y-82536210D01*
X47815590Y-83626450D01*
X47912263Y-83859839D01*
X48090892Y-84038467D01*
X48324281Y-84135140D01*
X49164330Y-84135140D01*
X49323080Y-83976390D01*
X49323080Y-82377460D01*
X49577080Y-82377460D01*
X49577080Y-83976390D01*
X49735830Y-84135140D01*
X50575879Y-84135140D01*
X50809268Y-84038467D01*
X50987897Y-83859839D01*
X51084570Y-83626450D01*
X51084570Y-82536210D01*
X50925820Y-82377460D01*
X49577080Y-82377460D01*
X49323080Y-82377460D01*
X47974340Y-82377460D01*
X47815590Y-82536210D01*
X47485390Y-82536210D01*
X47485390Y-82434610D01*
X47326640Y-82275860D01*
X46725295Y-82275860D01*
X46725295Y-82295860D01*
X46697730Y-82295860D01*
X46697730Y-82001860D01*
X46725295Y-82001860D01*
X46725295Y-82021860D01*
X47326640Y-82021860D01*
X47485390Y-81863110D01*
X47485390Y-80871930D01*
X47388717Y-80638541D01*
X47380476Y-80630300D01*
X47923044Y-80630300D01*
X47912263Y-80641081D01*
X47815590Y-80874470D01*
X47815590Y-81964710D01*
X47974340Y-82123460D01*
X49323080Y-82123460D01*
X49323080Y-82103460D01*
X49577080Y-82103460D01*
X49577080Y-82123460D01*
X50925820Y-82123460D01*
X51084570Y-81964710D01*
X51084570Y-80874470D01*
X50987897Y-80641081D01*
X50977116Y-80630300D01*
X51042653Y-80630300D01*
X51117500Y-80645188D01*
X51192347Y-80630300D01*
X51192352Y-80630300D01*
X51414037Y-80586204D01*
X51665429Y-80418229D01*
X51707831Y-80354770D01*
X53278373Y-78784229D01*
X53341829Y-78741829D01*
X53509804Y-78490437D01*
X53553900Y-78268752D01*
X53553900Y-78268748D01*
X53568788Y-78193900D01*
X53553900Y-78119052D01*
X53553900Y-74993146D01*
X53568788Y-74918299D01*
X53553900Y-74843452D01*
X53553900Y-74843448D01*
X53509804Y-74621763D01*
X53341829Y-74370371D01*
X53278373Y-74327971D01*
X52465171Y-73514770D01*
X52422769Y-73451311D01*
X52238305Y-73328056D01*
X52222997Y-73251095D01*
X52082649Y-73041051D01*
X51872605Y-72900703D01*
X51652107Y-72856844D01*
X51547929Y-72700931D01*
X51484473Y-72658531D01*
X51041471Y-72215530D01*
X50999069Y-72152071D01*
X50747677Y-71984096D01*
X50525992Y-71940000D01*
X50525987Y-71940000D01*
X50451140Y-71925112D01*
X50376293Y-71940000D01*
X49795451Y-71940000D01*
X49748157Y-71702235D01*
X49607809Y-71492191D01*
X49397765Y-71351843D01*
X49150000Y-71302560D01*
X47150000Y-71302560D01*
X46902235Y-71351843D01*
X46692191Y-71492191D01*
X46551843Y-71702235D01*
X46502560Y-71950000D01*
X46502560Y-73450000D01*
X46551843Y-73697765D01*
X46653564Y-73850000D01*
X46551843Y-74002235D01*
X46504549Y-74240000D01*
X43497440Y-74240000D01*
X43497440Y-73100000D01*
X43448157Y-72852235D01*
X43307809Y-72642191D01*
X43097765Y-72501843D01*
X42850000Y-72452560D01*
X40850000Y-72452560D01*
X40602235Y-72501843D01*
X40392191Y-72642191D01*
X40251843Y-72852235D01*
X40202560Y-73100000D01*
X40202560Y-73220509D01*
X40082649Y-73041051D01*
X39872605Y-72900703D01*
X39624840Y-72851420D01*
X38375160Y-72851420D01*
X38127395Y-72900703D01*
X38111827Y-72911105D01*
X38085300Y-72884579D01*
X38085300Y-68709568D01*
X38792560Y-68711254D01*
X38792560Y-69950000D01*
X38841843Y-70197765D01*
X38982191Y-70407809D01*
X39192235Y-70548157D01*
X39440000Y-70597440D01*
X40540000Y-70597440D01*
X40787765Y-70548157D01*
X40990000Y-70413027D01*
X41192235Y-70548157D01*
X41440000Y-70597440D01*
X42540000Y-70597440D01*
X42787765Y-70548157D01*
X42990000Y-70413027D01*
X43192235Y-70548157D01*
X43440000Y-70597440D01*
X44540000Y-70597440D01*
X44787765Y-70548157D01*
X44990000Y-70413027D01*
X45192235Y-70548157D01*
X45440000Y-70597440D01*
X46540000Y-70597440D01*
X46787765Y-70548157D01*
X46990000Y-70413027D01*
X47192235Y-70548157D01*
X47440000Y-70597440D01*
X48540000Y-70597440D01*
X48787765Y-70548157D01*
X48990000Y-70413027D01*
X49192235Y-70548157D01*
X49440000Y-70597440D01*
X50540000Y-70597440D01*
X50787765Y-70548157D01*
X50997809Y-70407809D01*
X51138157Y-70197765D01*
X51187440Y-69950000D01*
X51187440Y-68740789D01*
X52996797Y-68745100D01*
X53045701Y-68735433D01*
X53086903Y-68707903D01*
X53114433Y-68666701D01*
X53124100Y-68618100D01*
X53124100Y-68185000D01*
X54076309Y-68185000D01*
X54309698Y-68088327D01*
X54331291Y-68066735D01*
X54498850Y-68136140D01*
X54964250Y-68136140D01*
X55123000Y-67977390D01*
X55123000Y-67127760D01*
X55377000Y-67127760D01*
X55377000Y-67977390D01*
X55535750Y-68136140D01*
X56001150Y-68136140D01*
X56234539Y-68039467D01*
X56413167Y-67860838D01*
X56509840Y-67627449D01*
X56509840Y-67286510D01*
X56351090Y-67127760D01*
X55377000Y-67127760D01*
X55123000Y-67127760D01*
X54427010Y-67127760D01*
X54426250Y-67127000D01*
X53124100Y-67127000D01*
X53124100Y-66873000D01*
X54148150Y-66873000D01*
X54148910Y-66873760D01*
X55123000Y-66873760D01*
X55123000Y-66853760D01*
X55377000Y-66853760D01*
X55377000Y-66873760D01*
X56351090Y-66873760D01*
X56509840Y-66715010D01*
X56509840Y-66374071D01*
X56413167Y-66140682D01*
X56271065Y-65998579D01*
X56332649Y-65957429D01*
X56472997Y-65747385D01*
X56522280Y-65499620D01*
X56522280Y-65493884D01*
X56611673Y-65709698D01*
X56790301Y-65888327D01*
X57023690Y-65985000D01*
X57714250Y-65985000D01*
X57873000Y-65826250D01*
X57873000Y-64627000D01*
X58127000Y-64627000D01*
X58127000Y-65826250D01*
X58285750Y-65985000D01*
X58976310Y-65985000D01*
X59209699Y-65888327D01*
X59388327Y-65709698D01*
X59485000Y-65476309D01*
X59485000Y-64785750D01*
X59326250Y-64627000D01*
X58127000Y-64627000D01*
X57873000Y-64627000D01*
X57853000Y-64627000D01*
X57853000Y-64373000D01*
X57873000Y-64373000D01*
X57873000Y-64353000D01*
X58127000Y-64353000D01*
X58127000Y-64373000D01*
X59326250Y-64373000D01*
X59485000Y-64214250D01*
X59485000Y-63523691D01*
X59388327Y-63290302D01*
X59209699Y-63111673D01*
X59048968Y-63045096D01*
X59070625Y-63030625D01*
X59398839Y-62539418D01*
X59514092Y-61960000D01*
X59398839Y-61380582D01*
X59070625Y-60889375D01*
X58579418Y-60561161D01*
X58146256Y-60475000D01*
X57853744Y-60475000D01*
X57633592Y-60518791D01*
X57630331Y-60515530D01*
X57587929Y-60452071D01*
X57336537Y-60284096D01*
X57114852Y-60240000D01*
X57114847Y-60240000D01*
X57040000Y-60225112D01*
X56965153Y-60240000D01*
X54555669Y-60240000D01*
X54548157Y-60202235D01*
X54413027Y-60000000D01*
X54548157Y-59797765D01*
X54597440Y-59550000D01*
X54597440Y-58450000D01*
X54594833Y-58436890D01*
X56558524Y-58436890D01*
X56728355Y-58846924D01*
X57118642Y-59275183D01*
X57643108Y-59521486D01*
X57873000Y-59400819D01*
X57873000Y-58207000D01*
X58127000Y-58207000D01*
X58127000Y-59400819D01*
X58356892Y-59521486D01*
X58881358Y-59275183D01*
X59271645Y-58846924D01*
X59441476Y-58436890D01*
X59320155Y-58207000D01*
X58127000Y-58207000D01*
X57873000Y-58207000D01*
X56679845Y-58207000D01*
X56558524Y-58436890D01*
X54594833Y-58436890D01*
X54548157Y-58202235D01*
X54413027Y-58000000D01*
X54548157Y-57797765D01*
X54574566Y-57664999D01*
X56582593Y-57664999D01*
X56558524Y-57723110D01*
X56679845Y-57953000D01*
X57873000Y-57953000D01*
X57873000Y-57933000D01*
X58127000Y-57933000D01*
X58127000Y-57953000D01*
X59320155Y-57953000D01*
X59441476Y-57723110D01*
X59412235Y-57652511D01*
X59571138Y-57620903D01*
X59822530Y-57452928D01*
X59864932Y-57389469D01*
X60695173Y-56559229D01*
X60758629Y-56516829D01*
X60926604Y-56265437D01*
X60970700Y-56043752D01*
X60970700Y-56043747D01*
X60985588Y-55968900D01*
X60970700Y-55894053D01*
X60970700Y-51801946D01*
X60985588Y-51727099D01*
X60970700Y-51652252D01*
X60970700Y-51652248D01*
X60926604Y-51430563D01*
X60758629Y-51179171D01*
X60695173Y-51136771D01*
X59708831Y-50150430D01*
X59666429Y-50086971D01*
X59415037Y-49918996D01*
X59193352Y-49874900D01*
X59193347Y-49874900D01*
X59118500Y-49860012D01*
X59043653Y-49874900D01*
X58366502Y-49874900D01*
X57760760Y-49269159D01*
X57760760Y-47815076D01*
X57958949Y-47682649D01*
X58099297Y-47472605D01*
X58148580Y-47224840D01*
X58148580Y-45975160D01*
X58114442Y-45803534D01*
X58136140Y-45751150D01*
X58136140Y-45285750D01*
X57977390Y-45127000D01*
X57127760Y-45127000D01*
X57127760Y-45147000D01*
X56873760Y-45147000D01*
X56873760Y-45127000D01*
X56853760Y-45127000D01*
X56853760Y-44873000D01*
X56873760Y-44873000D01*
X56873760Y-43898910D01*
X57127760Y-43898910D01*
X57127760Y-44873000D01*
X57977390Y-44873000D01*
X58136140Y-44714250D01*
X58136140Y-44248850D01*
X58039467Y-44015461D01*
X57860838Y-43836833D01*
X57627449Y-43740160D01*
X57286510Y-43740160D01*
X57127760Y-43898910D01*
X56873760Y-43898910D01*
X56715010Y-43740160D01*
X56374071Y-43740160D01*
X56140682Y-43836833D01*
X55998579Y-43978935D01*
X55957429Y-43917351D01*
X55747385Y-43777003D01*
X55499620Y-43727720D01*
X54498860Y-43727720D01*
X54251095Y-43777003D01*
X54160919Y-43837257D01*
X53895491Y-43571829D01*
X53853089Y-43508371D01*
X53601697Y-43340396D01*
X53398189Y-43299916D01*
X53481200Y-43099510D01*
X53481200Y-42801750D01*
X53322450Y-42643000D01*
X52516000Y-42643000D01*
X52516000Y-42663000D01*
X52262000Y-42663000D01*
X52262000Y-42643000D01*
X52242000Y-42643000D01*
X52242000Y-42389000D01*
X52262000Y-42389000D01*
X52262000Y-42369000D01*
X52516000Y-42369000D01*
X52516000Y-42389000D01*
X53322450Y-42389000D01*
X53481200Y-42230250D01*
X53481200Y-41932490D01*
X53384527Y-41699101D01*
X53205898Y-41520473D01*
X52972509Y-41423800D01*
X52674750Y-41423800D01*
X52516002Y-41582548D01*
X52516002Y-41423800D01*
X52400715Y-41423800D01*
X52415009Y-41414249D01*
X52555357Y-41204205D01*
X52604640Y-40956440D01*
X52604640Y-40042040D01*
X52555357Y-39794275D01*
X52415009Y-39584231D01*
X52260000Y-39480656D01*
X52260000Y-38328748D01*
X52274888Y-38253900D01*
X52260000Y-38179052D01*
X52260000Y-38179048D01*
X52215904Y-37957363D01*
X52215904Y-37957362D01*
X52090329Y-37769427D01*
X52047929Y-37705971D01*
X51984473Y-37663571D01*
X50641031Y-36320130D01*
X50598629Y-36256671D01*
X50347237Y-36088696D01*
X50125552Y-36044600D01*
X50125547Y-36044600D01*
X50050700Y-36029712D01*
X49975853Y-36044600D01*
X48105640Y-36044600D01*
X48105640Y-35904600D01*
X48056357Y-35656835D01*
X47916009Y-35446791D01*
X47705965Y-35306443D01*
X47458200Y-35257160D01*
X45658200Y-35257160D01*
X45410435Y-35306443D01*
X45200391Y-35446791D01*
X45060043Y-35656835D01*
X45056925Y-35672508D01*
X44887707Y-35503290D01*
X44323530Y-35269600D01*
X43712870Y-35269600D01*
X43148693Y-35503290D01*
X42716890Y-35935093D01*
X42671531Y-36044600D01*
X40117947Y-36044600D01*
X40043100Y-36029712D01*
X39968253Y-36044600D01*
X39968248Y-36044600D01*
X39746563Y-36088696D01*
X39495171Y-36256671D01*
X39452771Y-36320127D01*
X38015530Y-37757369D01*
X37952071Y-37799771D01*
X37784096Y-38051164D01*
X37740000Y-38272849D01*
X37740000Y-38272853D01*
X37725112Y-38347700D01*
X37740000Y-38422547D01*
X37740000Y-39378305D01*
X37627395Y-39400703D01*
X37417351Y-39541051D01*
X37277003Y-39751095D01*
X37227720Y-39998860D01*
X37227720Y-40999620D01*
X37277003Y-41247385D01*
X37417351Y-41457429D01*
X37481063Y-41500000D01*
X37417351Y-41542571D01*
X37284924Y-41740760D01*
X36098188Y-41740760D01*
X36023340Y-41725872D01*
X35948492Y-41740760D01*
X35948488Y-41740760D01*
X35774945Y-41775280D01*
X35726802Y-41784856D01*
X35687623Y-41811035D01*
X35475411Y-41952831D01*
X35433011Y-42016287D01*
X34265528Y-43183771D01*
X34202072Y-43226171D01*
X34159672Y-43289627D01*
X34159671Y-43289628D01*
X34034097Y-43477563D01*
X33975112Y-43774100D01*
X33990001Y-43848952D01*
X33990000Y-49878305D01*
X33877395Y-49900703D01*
X33667351Y-50041051D01*
X33534924Y-50239240D01*
X30952508Y-50239240D01*
X30877660Y-50224352D01*
X30802812Y-50239240D01*
X30802808Y-50239240D01*
X30629265Y-50273760D01*
X30581122Y-50283336D01*
X30498769Y-50338363D01*
X30329731Y-50451311D01*
X30287331Y-50514767D01*
X29830428Y-50971671D01*
X29766972Y-51014071D01*
X29724572Y-51077527D01*
X29724571Y-51077528D01*
X29598997Y-51265463D01*
X29540012Y-51562000D01*
X25735000Y-51562000D01*
X25735000Y-30735000D01*
X64265001Y-30735000D01*
X64265000Y-89265000D01*
X64265000Y-89265000D01*
G37*
X64265000Y-89265000D02*
X51035703Y-89265000D01*
X51047727Y-89247005D01*
X51097010Y-88999240D01*
X51097010Y-86499880D01*
X51047727Y-86252115D01*
X50907379Y-86042071D01*
X50697335Y-85901723D01*
X50449570Y-85852440D01*
X48450590Y-85852440D01*
X48202825Y-85901723D01*
X47992781Y-86042071D01*
X47852433Y-86252115D01*
X47803150Y-86499880D01*
X47803150Y-88999240D01*
X47852433Y-89247005D01*
X47864457Y-89265000D01*
X42135543Y-89265000D01*
X42147567Y-89247005D01*
X42196850Y-88999240D01*
X42196850Y-86499880D01*
X42147567Y-86252115D01*
X42007219Y-86042071D01*
X41797175Y-85901723D01*
X41549410Y-85852440D01*
X39550430Y-85852440D01*
X39302665Y-85901723D01*
X39092621Y-86042071D01*
X38952273Y-86252115D01*
X38902990Y-86499880D01*
X38902990Y-88999240D01*
X38952273Y-89247005D01*
X38964297Y-89265000D01*
X25735000Y-89265000D01*
X25735000Y-81000780D01*
X38902990Y-81000780D01*
X38902990Y-83500140D01*
X38952273Y-83747905D01*
X39092621Y-83957949D01*
X39302665Y-84098297D01*
X39550430Y-84147580D01*
X41549410Y-84147580D01*
X41797175Y-84098297D01*
X42007219Y-83957949D01*
X42147567Y-83747905D01*
X42196850Y-83500140D01*
X42196850Y-81000780D01*
X42147567Y-80753015D01*
X42007219Y-80542971D01*
X41797175Y-80402623D01*
X41549410Y-80353340D01*
X39550430Y-80353340D01*
X39302665Y-80402623D01*
X39092621Y-80542971D01*
X38952273Y-80753015D01*
X38902990Y-81000780D01*
X25735000Y-81000780D01*
X25735000Y-77585750D01*
X46515000Y-77585750D01*
X46515000Y-78176310D01*
X46611673Y-78409699D01*
X46790302Y-78588327D01*
X47023691Y-78685000D01*
X47864250Y-78685000D01*
X48023000Y-78526250D01*
X48023000Y-77427000D01*
X48277000Y-77427000D01*
X48277000Y-78526250D01*
X48435750Y-78685000D01*
X49276309Y-78685000D01*
X49509698Y-78588327D01*
X49688327Y-78409699D01*
X49785000Y-78176310D01*
X49785000Y-77585750D01*
X49626250Y-77427000D01*
X48277000Y-77427000D01*
X48023000Y-77427000D01*
X46673750Y-77427000D01*
X46515000Y-77585750D01*
X25735000Y-77585750D01*
X25735000Y-76286510D01*
X37740160Y-76286510D01*
X37740160Y-76627449D01*
X37836833Y-76860838D01*
X38015461Y-77039467D01*
X38248850Y-77136140D01*
X38714250Y-77136140D01*
X38873000Y-76977390D01*
X38873000Y-76127760D01*
X37898910Y-76127760D01*
X37740160Y-76286510D01*
X25735000Y-76286510D01*
X25735000Y-69286510D01*
X33490160Y-69286510D01*
X33490160Y-69627449D01*
X33586833Y-69860838D01*
X33765461Y-70039467D01*
X33998850Y-70136140D01*
X34464250Y-70136140D01*
X34623000Y-69977390D01*
X34623000Y-69127760D01*
X34877000Y-69127760D01*
X34877000Y-69977390D01*
X35035750Y-70136140D01*
X35501150Y-70136140D01*
X35734539Y-70039467D01*
X35913167Y-69860838D01*
X36009840Y-69627449D01*
X36009840Y-69286510D01*
X35851090Y-69127760D01*
X34877000Y-69127760D01*
X34623000Y-69127760D01*
X33648910Y-69127760D01*
X33490160Y-69286510D01*
X25735000Y-69286510D01*
X25735000Y-55896892D01*
X30558514Y-55896892D01*
X30804817Y-56421358D01*
X31233076Y-56811645D01*
X31643110Y-56981476D01*
X31873000Y-56860155D01*
X31873000Y-55667000D01*
X30679181Y-55667000D01*
X30558514Y-55896892D01*
X25735000Y-55896892D01*
X25735000Y-51562000D01*
X29540012Y-51562000D01*
X29554901Y-51636852D01*
X29554900Y-53582653D01*
X29540012Y-53657500D01*
X29554900Y-53732347D01*
X29554900Y-53732351D01*
X29598996Y-53954036D01*
X29766971Y-54205429D01*
X29830430Y-54247831D01*
X30308770Y-54726172D01*
X30351171Y-54789629D01*
X30602563Y-54957604D01*
X30659132Y-54968856D01*
X30558514Y-55183108D01*
X30679181Y-55413000D01*
X31873000Y-55413000D01*
X31873000Y-55393000D01*
X32127000Y-55393000D01*
X32127000Y-55413000D01*
X32147000Y-55413000D01*
X32147000Y-55667000D01*
X32127000Y-55667000D01*
X32127000Y-56860155D01*
X32356890Y-56981476D01*
X32415001Y-56957407D01*
X32415001Y-58225754D01*
X32400113Y-58300601D01*
X32415001Y-58375448D01*
X32415001Y-58375452D01*
X32459097Y-58597137D01*
X32627072Y-58848530D01*
X32690530Y-58890931D01*
X33284832Y-59485235D01*
X33327231Y-59548689D01*
X33390684Y-59591087D01*
X33390686Y-59591089D01*
X33511695Y-59671944D01*
X33527003Y-59748905D01*
X33667351Y-59958949D01*
X33877395Y-60099297D01*
X33990000Y-60121695D01*
X33990001Y-65878305D01*
X33877395Y-65900703D01*
X33667351Y-66041051D01*
X33527003Y-66251095D01*
X33477720Y-66498860D01*
X33477720Y-67499620D01*
X33527003Y-67747385D01*
X33667351Y-67957429D01*
X33728935Y-67998579D01*
X33586833Y-68140682D01*
X33490160Y-68374071D01*
X33490160Y-68715010D01*
X33648910Y-68873760D01*
X34623000Y-68873760D01*
X34623000Y-68853760D01*
X34877000Y-68853760D01*
X34877000Y-68873760D01*
X35851090Y-68873760D01*
X36009840Y-68715010D01*
X36009840Y-68374071D01*
X35926502Y-68172875D01*
X36050000Y-68197440D01*
X36565301Y-68197440D01*
X36565300Y-72416748D01*
X36565300Y-73124533D01*
X36550412Y-73199380D01*
X36565300Y-73274227D01*
X36565300Y-73274231D01*
X36609396Y-73495916D01*
X36777371Y-73747309D01*
X36840830Y-73789711D01*
X37534830Y-74483712D01*
X37577231Y-74547169D01*
X37761695Y-74670424D01*
X37777003Y-74747385D01*
X37917351Y-74957429D01*
X37978935Y-74998579D01*
X37836833Y-75140682D01*
X37740160Y-75374071D01*
X37740160Y-75715010D01*
X37898910Y-75873760D01*
X38873000Y-75873760D01*
X38873000Y-75853760D01*
X39127000Y-75853760D01*
X39127000Y-75873760D01*
X39147000Y-75873760D01*
X39147000Y-76127760D01*
X39127000Y-76127760D01*
X39127000Y-76977390D01*
X39285750Y-77136140D01*
X39751150Y-77136140D01*
X39984539Y-77039467D01*
X40163167Y-76860838D01*
X40202560Y-76765735D01*
X40202560Y-76900000D01*
X40251843Y-77147765D01*
X40392191Y-77357809D01*
X40602235Y-77498157D01*
X40850000Y-77547440D01*
X42850000Y-77547440D01*
X43097765Y-77498157D01*
X43307809Y-77357809D01*
X43448157Y-77147765D01*
X43497440Y-76900000D01*
X43497440Y-75760000D01*
X46504549Y-75760000D01*
X46551843Y-75997765D01*
X46652927Y-76149047D01*
X46611673Y-76190301D01*
X46515000Y-76423690D01*
X46515000Y-77014250D01*
X46673750Y-77173000D01*
X48023000Y-77173000D01*
X48023000Y-77153000D01*
X48277000Y-77153000D01*
X48277000Y-77173000D01*
X49626250Y-77173000D01*
X49785000Y-77014250D01*
X49785000Y-76735702D01*
X49836833Y-76860838D01*
X50015461Y-77039467D01*
X50248850Y-77136140D01*
X50714250Y-77136140D01*
X50873000Y-76977390D01*
X50873000Y-76127760D01*
X50853000Y-76127760D01*
X50853000Y-75873760D01*
X50873000Y-75873760D01*
X50873000Y-75853760D01*
X51127000Y-75853760D01*
X51127000Y-75873760D01*
X51147000Y-75873760D01*
X51147000Y-76127760D01*
X51127000Y-76127760D01*
X51127000Y-76977390D01*
X51285750Y-77136140D01*
X51751150Y-77136140D01*
X51984539Y-77039467D01*
X52033901Y-76990105D01*
X52033901Y-77879097D01*
X50802699Y-79110300D01*
X44352588Y-79110300D01*
X44277740Y-79095412D01*
X44202892Y-79110300D01*
X44202888Y-79110300D01*
X44029345Y-79144820D01*
X43981202Y-79154396D01*
X43794158Y-79279376D01*
X43729811Y-79322371D01*
X43687411Y-79385827D01*
X42915330Y-80157909D01*
X42851871Y-80200311D01*
X42683896Y-80451704D01*
X42655415Y-80594886D01*
X42551453Y-80750475D01*
X42502170Y-80998240D01*
X42502170Y-83299480D01*
X42551453Y-83547245D01*
X42626901Y-83660160D01*
X42583613Y-83660160D01*
X42183117Y-83826051D01*
X41876591Y-84132577D01*
X41710700Y-84533073D01*
X41710700Y-84966567D01*
X41876591Y-85367063D01*
X42183117Y-85673589D01*
X42583613Y-85839480D01*
X43017107Y-85839480D01*
X43417603Y-85673589D01*
X43724129Y-85367063D01*
X43890020Y-84966567D01*
X43890020Y-84533073D01*
X43724129Y-84132577D01*
X43538472Y-83946920D01*
X43649990Y-83946920D01*
X43799850Y-83917111D01*
X43949710Y-83946920D01*
X44450090Y-83946920D01*
X44599950Y-83917111D01*
X44749810Y-83946920D01*
X45250190Y-83946920D01*
X45400050Y-83917111D01*
X45549910Y-83946920D01*
X46050290Y-83946920D01*
X46187732Y-83919581D01*
X46223701Y-83934480D01*
X46316355Y-83934480D01*
X46464240Y-83786595D01*
X46473198Y-83780609D01*
X46473198Y-83934480D01*
X46473968Y-83934480D01*
X46275871Y-84132577D01*
X46109980Y-84533073D01*
X46109980Y-84966567D01*
X46275871Y-85367063D01*
X46582397Y-85673589D01*
X46982893Y-85839480D01*
X47416387Y-85839480D01*
X47816883Y-85673589D01*
X48123409Y-85367063D01*
X48289300Y-84966567D01*
X48289300Y-84533073D01*
X48123409Y-84132577D01*
X47816883Y-83826051D01*
X47416387Y-83660160D01*
X47387736Y-83660160D01*
X47388717Y-83659179D01*
X47485390Y-83425790D01*
X47485390Y-82536210D01*
X47815590Y-82536210D01*
X47815590Y-83626450D01*
X47912263Y-83859839D01*
X48090892Y-84038467D01*
X48324281Y-84135140D01*
X49164330Y-84135140D01*
X49323080Y-83976390D01*
X49323080Y-82377460D01*
X49577080Y-82377460D01*
X49577080Y-83976390D01*
X49735830Y-84135140D01*
X50575879Y-84135140D01*
X50809268Y-84038467D01*
X50987897Y-83859839D01*
X51084570Y-83626450D01*
X51084570Y-82536210D01*
X50925820Y-82377460D01*
X49577080Y-82377460D01*
X49323080Y-82377460D01*
X47974340Y-82377460D01*
X47815590Y-82536210D01*
X47485390Y-82536210D01*
X47485390Y-82434610D01*
X47326640Y-82275860D01*
X46725295Y-82275860D01*
X46725295Y-82295860D01*
X46697730Y-82295860D01*
X46697730Y-82001860D01*
X46725295Y-82001860D01*
X46725295Y-82021860D01*
X47326640Y-82021860D01*
X47485390Y-81863110D01*
X47485390Y-80871930D01*
X47388717Y-80638541D01*
X47380476Y-80630300D01*
X47923044Y-80630300D01*
X47912263Y-80641081D01*
X47815590Y-80874470D01*
X47815590Y-81964710D01*
X47974340Y-82123460D01*
X49323080Y-82123460D01*
X49323080Y-82103460D01*
X49577080Y-82103460D01*
X49577080Y-82123460D01*
X50925820Y-82123460D01*
X51084570Y-81964710D01*
X51084570Y-80874470D01*
X50987897Y-80641081D01*
X50977116Y-80630300D01*
X51042653Y-80630300D01*
X51117500Y-80645188D01*
X51192347Y-80630300D01*
X51192352Y-80630300D01*
X51414037Y-80586204D01*
X51665429Y-80418229D01*
X51707831Y-80354770D01*
X53278373Y-78784229D01*
X53341829Y-78741829D01*
X53509804Y-78490437D01*
X53553900Y-78268752D01*
X53553900Y-78268748D01*
X53568788Y-78193900D01*
X53553900Y-78119052D01*
X53553900Y-74993146D01*
X53568788Y-74918299D01*
X53553900Y-74843452D01*
X53553900Y-74843448D01*
X53509804Y-74621763D01*
X53341829Y-74370371D01*
X53278373Y-74327971D01*
X52465171Y-73514770D01*
X52422769Y-73451311D01*
X52238305Y-73328056D01*
X52222997Y-73251095D01*
X52082649Y-73041051D01*
X51872605Y-72900703D01*
X51652107Y-72856844D01*
X51547929Y-72700931D01*
X51484473Y-72658531D01*
X51041471Y-72215530D01*
X50999069Y-72152071D01*
X50747677Y-71984096D01*
X50525992Y-71940000D01*
X50525987Y-71940000D01*
X50451140Y-71925112D01*
X50376293Y-71940000D01*
X49795451Y-71940000D01*
X49748157Y-71702235D01*
X49607809Y-71492191D01*
X49397765Y-71351843D01*
X49150000Y-71302560D01*
X47150000Y-71302560D01*
X46902235Y-71351843D01*
X46692191Y-71492191D01*
X46551843Y-71702235D01*
X46502560Y-71950000D01*
X46502560Y-73450000D01*
X46551843Y-73697765D01*
X46653564Y-73850000D01*
X46551843Y-74002235D01*
X46504549Y-74240000D01*
X43497440Y-74240000D01*
X43497440Y-73100000D01*
X43448157Y-72852235D01*
X43307809Y-72642191D01*
X43097765Y-72501843D01*
X42850000Y-72452560D01*
X40850000Y-72452560D01*
X40602235Y-72501843D01*
X40392191Y-72642191D01*
X40251843Y-72852235D01*
X40202560Y-73100000D01*
X40202560Y-73220509D01*
X40082649Y-73041051D01*
X39872605Y-72900703D01*
X39624840Y-72851420D01*
X38375160Y-72851420D01*
X38127395Y-72900703D01*
X38111827Y-72911105D01*
X38085300Y-72884579D01*
X38085300Y-68709568D01*
X38792560Y-68711254D01*
X38792560Y-69950000D01*
X38841843Y-70197765D01*
X38982191Y-70407809D01*
X39192235Y-70548157D01*
X39440000Y-70597440D01*
X40540000Y-70597440D01*
X40787765Y-70548157D01*
X40990000Y-70413027D01*
X41192235Y-70548157D01*
X41440000Y-70597440D01*
X42540000Y-70597440D01*
X42787765Y-70548157D01*
X42990000Y-70413027D01*
X43192235Y-70548157D01*
X43440000Y-70597440D01*
X44540000Y-70597440D01*
X44787765Y-70548157D01*
X44990000Y-70413027D01*
X45192235Y-70548157D01*
X45440000Y-70597440D01*
X46540000Y-70597440D01*
X46787765Y-70548157D01*
X46990000Y-70413027D01*
X47192235Y-70548157D01*
X47440000Y-70597440D01*
X48540000Y-70597440D01*
X48787765Y-70548157D01*
X48990000Y-70413027D01*
X49192235Y-70548157D01*
X49440000Y-70597440D01*
X50540000Y-70597440D01*
X50787765Y-70548157D01*
X50997809Y-70407809D01*
X51138157Y-70197765D01*
X51187440Y-69950000D01*
X51187440Y-68740789D01*
X52996797Y-68745100D01*
X53045701Y-68735433D01*
X53086903Y-68707903D01*
X53114433Y-68666701D01*
X53124100Y-68618100D01*
X53124100Y-68185000D01*
X54076309Y-68185000D01*
X54309698Y-68088327D01*
X54331291Y-68066735D01*
X54498850Y-68136140D01*
X54964250Y-68136140D01*
X55123000Y-67977390D01*
X55123000Y-67127760D01*
X55377000Y-67127760D01*
X55377000Y-67977390D01*
X55535750Y-68136140D01*
X56001150Y-68136140D01*
X56234539Y-68039467D01*
X56413167Y-67860838D01*
X56509840Y-67627449D01*
X56509840Y-67286510D01*
X56351090Y-67127760D01*
X55377000Y-67127760D01*
X55123000Y-67127760D01*
X54427010Y-67127760D01*
X54426250Y-67127000D01*
X53124100Y-67127000D01*
X53124100Y-66873000D01*
X54148150Y-66873000D01*
X54148910Y-66873760D01*
X55123000Y-66873760D01*
X55123000Y-66853760D01*
X55377000Y-66853760D01*
X55377000Y-66873760D01*
X56351090Y-66873760D01*
X56509840Y-66715010D01*
X56509840Y-66374071D01*
X56413167Y-66140682D01*
X56271065Y-65998579D01*
X56332649Y-65957429D01*
X56472997Y-65747385D01*
X56522280Y-65499620D01*
X56522280Y-65493884D01*
X56611673Y-65709698D01*
X56790301Y-65888327D01*
X57023690Y-65985000D01*
X57714250Y-65985000D01*
X57873000Y-65826250D01*
X57873000Y-64627000D01*
X58127000Y-64627000D01*
X58127000Y-65826250D01*
X58285750Y-65985000D01*
X58976310Y-65985000D01*
X59209699Y-65888327D01*
X59388327Y-65709698D01*
X59485000Y-65476309D01*
X59485000Y-64785750D01*
X59326250Y-64627000D01*
X58127000Y-64627000D01*
X57873000Y-64627000D01*
X57853000Y-64627000D01*
X57853000Y-64373000D01*
X57873000Y-64373000D01*
X57873000Y-64353000D01*
X58127000Y-64353000D01*
X58127000Y-64373000D01*
X59326250Y-64373000D01*
X59485000Y-64214250D01*
X59485000Y-63523691D01*
X59388327Y-63290302D01*
X59209699Y-63111673D01*
X59048968Y-63045096D01*
X59070625Y-63030625D01*
X59398839Y-62539418D01*
X59514092Y-61960000D01*
X59398839Y-61380582D01*
X59070625Y-60889375D01*
X58579418Y-60561161D01*
X58146256Y-60475000D01*
X57853744Y-60475000D01*
X57633592Y-60518791D01*
X57630331Y-60515530D01*
X57587929Y-60452071D01*
X57336537Y-60284096D01*
X57114852Y-60240000D01*
X57114847Y-60240000D01*
X57040000Y-60225112D01*
X56965153Y-60240000D01*
X54555669Y-60240000D01*
X54548157Y-60202235D01*
X54413027Y-60000000D01*
X54548157Y-59797765D01*
X54597440Y-59550000D01*
X54597440Y-58450000D01*
X54594833Y-58436890D01*
X56558524Y-58436890D01*
X56728355Y-58846924D01*
X57118642Y-59275183D01*
X57643108Y-59521486D01*
X57873000Y-59400819D01*
X57873000Y-58207000D01*
X58127000Y-58207000D01*
X58127000Y-59400819D01*
X58356892Y-59521486D01*
X58881358Y-59275183D01*
X59271645Y-58846924D01*
X59441476Y-58436890D01*
X59320155Y-58207000D01*
X58127000Y-58207000D01*
X57873000Y-58207000D01*
X56679845Y-58207000D01*
X56558524Y-58436890D01*
X54594833Y-58436890D01*
X54548157Y-58202235D01*
X54413027Y-58000000D01*
X54548157Y-57797765D01*
X54574566Y-57664999D01*
X56582593Y-57664999D01*
X56558524Y-57723110D01*
X56679845Y-57953000D01*
X57873000Y-57953000D01*
X57873000Y-57933000D01*
X58127000Y-57933000D01*
X58127000Y-57953000D01*
X59320155Y-57953000D01*
X59441476Y-57723110D01*
X59412235Y-57652511D01*
X59571138Y-57620903D01*
X59822530Y-57452928D01*
X59864932Y-57389469D01*
X60695173Y-56559229D01*
X60758629Y-56516829D01*
X60926604Y-56265437D01*
X60970700Y-56043752D01*
X60970700Y-56043747D01*
X60985588Y-55968900D01*
X60970700Y-55894053D01*
X60970700Y-51801946D01*
X60985588Y-51727099D01*
X60970700Y-51652252D01*
X60970700Y-51652248D01*
X60926604Y-51430563D01*
X60758629Y-51179171D01*
X60695173Y-51136771D01*
X59708831Y-50150430D01*
X59666429Y-50086971D01*
X59415037Y-49918996D01*
X59193352Y-49874900D01*
X59193347Y-49874900D01*
X59118500Y-49860012D01*
X59043653Y-49874900D01*
X58366502Y-49874900D01*
X57760760Y-49269159D01*
X57760760Y-47815076D01*
X57958949Y-47682649D01*
X58099297Y-47472605D01*
X58148580Y-47224840D01*
X58148580Y-45975160D01*
X58114442Y-45803534D01*
X58136140Y-45751150D01*
X58136140Y-45285750D01*
X57977390Y-45127000D01*
X57127760Y-45127000D01*
X57127760Y-45147000D01*
X56873760Y-45147000D01*
X56873760Y-45127000D01*
X56853760Y-45127000D01*
X56853760Y-44873000D01*
X56873760Y-44873000D01*
X56873760Y-43898910D01*
X57127760Y-43898910D01*
X57127760Y-44873000D01*
X57977390Y-44873000D01*
X58136140Y-44714250D01*
X58136140Y-44248850D01*
X58039467Y-44015461D01*
X57860838Y-43836833D01*
X57627449Y-43740160D01*
X57286510Y-43740160D01*
X57127760Y-43898910D01*
X56873760Y-43898910D01*
X56715010Y-43740160D01*
X56374071Y-43740160D01*
X56140682Y-43836833D01*
X55998579Y-43978935D01*
X55957429Y-43917351D01*
X55747385Y-43777003D01*
X55499620Y-43727720D01*
X54498860Y-43727720D01*
X54251095Y-43777003D01*
X54160919Y-43837257D01*
X53895491Y-43571829D01*
X53853089Y-43508371D01*
X53601697Y-43340396D01*
X53398189Y-43299916D01*
X53481200Y-43099510D01*
X53481200Y-42801750D01*
X53322450Y-42643000D01*
X52516000Y-42643000D01*
X52516000Y-42663000D01*
X52262000Y-42663000D01*
X52262000Y-42643000D01*
X52242000Y-42643000D01*
X52242000Y-42389000D01*
X52262000Y-42389000D01*
X52262000Y-42369000D01*
X52516000Y-42369000D01*
X52516000Y-42389000D01*
X53322450Y-42389000D01*
X53481200Y-42230250D01*
X53481200Y-41932490D01*
X53384527Y-41699101D01*
X53205898Y-41520473D01*
X52972509Y-41423800D01*
X52674750Y-41423800D01*
X52516002Y-41582548D01*
X52516002Y-41423800D01*
X52400715Y-41423800D01*
X52415009Y-41414249D01*
X52555357Y-41204205D01*
X52604640Y-40956440D01*
X52604640Y-40042040D01*
X52555357Y-39794275D01*
X52415009Y-39584231D01*
X52260000Y-39480656D01*
X52260000Y-38328748D01*
X52274888Y-38253900D01*
X52260000Y-38179052D01*
X52260000Y-38179048D01*
X52215904Y-37957363D01*
X52215904Y-37957362D01*
X52090329Y-37769427D01*
X52047929Y-37705971D01*
X51984473Y-37663571D01*
X50641031Y-36320130D01*
X50598629Y-36256671D01*
X50347237Y-36088696D01*
X50125552Y-36044600D01*
X50125547Y-36044600D01*
X50050700Y-36029712D01*
X49975853Y-36044600D01*
X48105640Y-36044600D01*
X48105640Y-35904600D01*
X48056357Y-35656835D01*
X47916009Y-35446791D01*
X47705965Y-35306443D01*
X47458200Y-35257160D01*
X45658200Y-35257160D01*
X45410435Y-35306443D01*
X45200391Y-35446791D01*
X45060043Y-35656835D01*
X45056925Y-35672508D01*
X44887707Y-35503290D01*
X44323530Y-35269600D01*
X43712870Y-35269600D01*
X43148693Y-35503290D01*
X42716890Y-35935093D01*
X42671531Y-36044600D01*
X40117947Y-36044600D01*
X40043100Y-36029712D01*
X39968253Y-36044600D01*
X39968248Y-36044600D01*
X39746563Y-36088696D01*
X39495171Y-36256671D01*
X39452771Y-36320127D01*
X38015530Y-37757369D01*
X37952071Y-37799771D01*
X37784096Y-38051164D01*
X37740000Y-38272849D01*
X37740000Y-38272853D01*
X37725112Y-38347700D01*
X37740000Y-38422547D01*
X37740000Y-39378305D01*
X37627395Y-39400703D01*
X37417351Y-39541051D01*
X37277003Y-39751095D01*
X37227720Y-39998860D01*
X37227720Y-40999620D01*
X37277003Y-41247385D01*
X37417351Y-41457429D01*
X37481063Y-41500000D01*
X37417351Y-41542571D01*
X37284924Y-41740760D01*
X36098188Y-41740760D01*
X36023340Y-41725872D01*
X35948492Y-41740760D01*
X35948488Y-41740760D01*
X35774945Y-41775280D01*
X35726802Y-41784856D01*
X35687623Y-41811035D01*
X35475411Y-41952831D01*
X35433011Y-42016287D01*
X34265528Y-43183771D01*
X34202072Y-43226171D01*
X34159672Y-43289627D01*
X34159671Y-43289628D01*
X34034097Y-43477563D01*
X33975112Y-43774100D01*
X33990001Y-43848952D01*
X33990000Y-49878305D01*
X33877395Y-49900703D01*
X33667351Y-50041051D01*
X33534924Y-50239240D01*
X30952508Y-50239240D01*
X30877660Y-50224352D01*
X30802812Y-50239240D01*
X30802808Y-50239240D01*
X30629265Y-50273760D01*
X30581122Y-50283336D01*
X30498769Y-50338363D01*
X30329731Y-50451311D01*
X30287331Y-50514767D01*
X29830428Y-50971671D01*
X29766972Y-51014071D01*
X29724572Y-51077527D01*
X29724571Y-51077528D01*
X29598997Y-51265463D01*
X29540012Y-51562000D01*
X25735000Y-51562000D01*
X25735000Y-30735000D01*
X64265001Y-30735000D01*
X64265000Y-89265000D01*
G04 #@! TD*
M02*
